<mxfile host="app.diagrams.net" modified="2021-05-17T11:42:22.760Z" agent="5.0 (Windows NT 10.0; Win64; x64) AppleWebKit/537.36 (KHTML, like Gecko) Chrome/90.0.4430.212 Safari/537.36" etag="aRS4SJUhdPmx9x224fyn" version="14.6.13" type="github">
  <diagram id="VYlVkeTAuaCsyhofgKrP" name="Page-1">
    <mxGraphModel dx="1008" dy="536" grid="0" gridSize="10" guides="1" tooltips="1" connect="1" arrows="1" fold="1" page="0" pageScale="1" pageWidth="827" pageHeight="1169" math="0" shadow="0">
      <root>
        <mxCell id="0" />
        <mxCell id="1" parent="0" />
        <mxCell id="BojdR61HZ1z0DqY5nSkZ-1" value="" style="ellipse;whiteSpace=wrap;html=1;aspect=fixed;" parent="1" vertex="1">
          <mxGeometry x="200" y="160" width="60" height="60" as="geometry" />
        </mxCell>
        <mxCell id="BojdR61HZ1z0DqY5nSkZ-3" value="" style="shape=flexArrow;endArrow=classic;startArrow=none;html=1;" parent="1" source="BojdR61HZ1z0DqY5nSkZ-12" edge="1">
          <mxGeometry width="50" height="50" relative="1" as="geometry">
            <mxPoint x="330" y="260" as="sourcePoint" />
            <mxPoint x="460.00086562287356" y="189.73684780015049" as="targetPoint" />
          </mxGeometry>
        </mxCell>
        <mxCell id="BojdR61HZ1z0DqY5nSkZ-11" value="" style="shape=image;html=1;verticalAlign=top;verticalLabelPosition=bottom;labelBackgroundColor=#ffffff;imageAspect=0;aspect=fixed;image=https://cdn4.iconfinder.com/data/icons/iconsimple-logotypes/512/android-128.png" parent="1" vertex="1">
          <mxGeometry x="300" y="171" width="38" height="38" as="geometry" />
        </mxCell>
        <mxCell id="BojdR61HZ1z0DqY5nSkZ-13" value="" style="shape=flexArrow;endArrow=none;startArrow=classic;html=1;" parent="1" source="BojdR61HZ1z0DqY5nSkZ-1" target="BojdR61HZ1z0DqY5nSkZ-11" edge="1">
          <mxGeometry width="50" height="50" relative="1" as="geometry">
            <mxPoint x="260" y="190" as="sourcePoint" />
            <mxPoint x="460" y="190" as="targetPoint" />
          </mxGeometry>
        </mxCell>
        <mxCell id="BojdR61HZ1z0DqY5nSkZ-12" value="" style="shape=image;html=1;verticalAlign=top;verticalLabelPosition=bottom;labelBackgroundColor=#ffffff;imageAspect=0;aspect=fixed;image=https://cdn4.iconfinder.com/data/icons/iconsimple-logotypes/512/android-128.png" parent="1" vertex="1">
          <mxGeometry x="376" y="171" width="38" height="38" as="geometry" />
        </mxCell>
        <mxCell id="BojdR61HZ1z0DqY5nSkZ-14" value="" style="shape=flexArrow;endArrow=none;startArrow=none;html=1;" parent="1" source="BojdR61HZ1z0DqY5nSkZ-11" target="BojdR61HZ1z0DqY5nSkZ-12" edge="1">
          <mxGeometry width="50" height="50" relative="1" as="geometry">
            <mxPoint x="328" y="189.9817642362467" as="sourcePoint" />
            <mxPoint x="460.00026254729687" y="189.85507341502648" as="targetPoint" />
          </mxGeometry>
        </mxCell>
        <mxCell id="BojdR61HZ1z0DqY5nSkZ-15" value="" style="endArrow=classic;html=1;" parent="1" edge="1">
          <mxGeometry width="50" height="50" relative="1" as="geometry">
            <mxPoint x="300" y="150" as="sourcePoint" />
            <mxPoint x="350" y="150" as="targetPoint" />
          </mxGeometry>
        </mxCell>
        <mxCell id="BojdR61HZ1z0DqY5nSkZ-16" value="" style="endArrow=classic;html=1;" parent="1" edge="1">
          <mxGeometry width="50" height="50" relative="1" as="geometry">
            <mxPoint x="420" y="230" as="sourcePoint" />
            <mxPoint x="370" y="230" as="targetPoint" />
          </mxGeometry>
        </mxCell>
        <mxCell id="BojdR61HZ1z0DqY5nSkZ-17" value="" style="ellipse;whiteSpace=wrap;html=1;aspect=fixed;" parent="1" vertex="1">
          <mxGeometry x="460" y="160" width="60" height="60" as="geometry" />
        </mxCell>
        <mxCell id="BojdR61HZ1z0DqY5nSkZ-19" value="" style="ellipse;whiteSpace=wrap;html=1;aspect=fixed;" parent="1" vertex="1">
          <mxGeometry x="692" y="160" width="60" height="60" as="geometry" />
        </mxCell>
        <mxCell id="BojdR61HZ1z0DqY5nSkZ-20" value="" style="shape=flexArrow;endArrow=classic;html=1;" parent="1" target="BojdR61HZ1z0DqY5nSkZ-19" edge="1">
          <mxGeometry width="50" height="50" relative="1" as="geometry">
            <mxPoint x="602" y="190" as="sourcePoint" />
            <mxPoint x="476" y="214" as="targetPoint" />
          </mxGeometry>
        </mxCell>
        <mxCell id="BojdR61HZ1z0DqY5nSkZ-21" value="" style="shape=flexArrow;endArrow=classic;html=1;" parent="1" target="BojdR61HZ1z0DqY5nSkZ-19" edge="1">
          <mxGeometry width="50" height="50" relative="1" as="geometry">
            <mxPoint x="837" y="191" as="sourcePoint" />
            <mxPoint x="702" y="200" as="targetPoint" />
          </mxGeometry>
        </mxCell>
        <mxCell id="BojdR61HZ1z0DqY5nSkZ-22" value="" style="shape=image;html=1;verticalAlign=top;verticalLabelPosition=bottom;labelBackgroundColor=#ffffff;imageAspect=0;aspect=fixed;image=https://cdn4.iconfinder.com/data/icons/iconsimple-logotypes/512/android-128.png" parent="1" vertex="1">
          <mxGeometry x="563" y="171" width="38" height="38" as="geometry" />
        </mxCell>
        <mxCell id="BojdR61HZ1z0DqY5nSkZ-23" value="" style="shape=image;html=1;verticalAlign=top;verticalLabelPosition=bottom;labelBackgroundColor=#ffffff;imageAspect=0;aspect=fixed;image=https://cdn4.iconfinder.com/data/icons/iconsimple-logotypes/512/android-128.png" parent="1" vertex="1">
          <mxGeometry x="838" y="171" width="38" height="38" as="geometry" />
        </mxCell>
        <mxCell id="BojdR61HZ1z0DqY5nSkZ-24" value="" style="endArrow=classic;html=1;" parent="1" edge="1">
          <mxGeometry width="50" height="50" relative="1" as="geometry">
            <mxPoint x="557" y="153" as="sourcePoint" />
            <mxPoint x="607" y="153" as="targetPoint" />
          </mxGeometry>
        </mxCell>
        <mxCell id="BojdR61HZ1z0DqY5nSkZ-25" value="" style="endArrow=classic;html=1;" parent="1" edge="1">
          <mxGeometry width="50" height="50" relative="1" as="geometry">
            <mxPoint x="882" y="227" as="sourcePoint" />
            <mxPoint x="832" y="227" as="targetPoint" />
          </mxGeometry>
        </mxCell>
        <mxCell id="mA_BSPlJ4o0QRFDZYxEd-1" value="" style="ellipse;whiteSpace=wrap;html=1;aspect=fixed;" vertex="1" parent="1">
          <mxGeometry x="928" y="160" width="60" height="60" as="geometry" />
        </mxCell>
        <mxCell id="mA_BSPlJ4o0QRFDZYxEd-3" value="" style="shape=image;html=1;verticalAlign=top;verticalLabelPosition=bottom;labelBackgroundColor=#ffffff;imageAspect=0;aspect=fixed;image=https://cdn4.iconfinder.com/data/icons/iconsimple-logotypes/512/android-128.png" vertex="1" parent="1">
          <mxGeometry x="1074" y="173" width="38" height="38" as="geometry" />
        </mxCell>
        <mxCell id="mA_BSPlJ4o0QRFDZYxEd-4" value="" style="shape=image;html=1;verticalAlign=top;verticalLabelPosition=bottom;labelBackgroundColor=#ffffff;imageAspect=0;aspect=fixed;image=https://cdn4.iconfinder.com/data/icons/iconsimple-logotypes/512/android-128.png" vertex="1" parent="1">
          <mxGeometry x="939" y="173" width="38" height="38" as="geometry" />
        </mxCell>
        <mxCell id="mA_BSPlJ4o0QRFDZYxEd-6" value="" style="shape=flexArrow;endArrow=classic;html=1;" edge="1" parent="1">
          <mxGeometry width="50" height="50" relative="1" as="geometry">
            <mxPoint x="1073" y="192.37" as="sourcePoint" />
            <mxPoint x="987.9992123813574" y="191.58738559696633" as="targetPoint" />
          </mxGeometry>
        </mxCell>
      </root>
    </mxGraphModel>
  </diagram>
</mxfile>
